<?xml version="1.0" standalone="no"?>
<!DOCTYPE svg PUBLIC "-//W3C//DTD SVG 20010904//EN"
 "http://www.w3.org/TR/2001/REC-SVG-20010904/DTD/svg10.dtd">
<svg version="1.0" xmlns="http://www.w3.org/2000/svg"
 width="1344.000000pt" height="1344.000000pt" viewBox="0 0 1344.000000 1344.000000"
 preserveAspectRatio="xMidYMid meet">
<metadata>
Created by potrace 1.14, written by Peter Selinger 2001-2017
</metadata>
<g transform="translate(0.000000,1344.000000) scale(0.100000,-0.100000)"
fill="#000000" stroke="none">
<path d="M3523 11465 c-11 -11 -53 -49 -93 -85 -40 -36 -85 -76 -100 -90 -15
-14 -60 -54 -100 -90 -41 -36 -88 -78 -105 -95 -18 -16 -65 -59 -105 -95 -40
-36 -88 -78 -106 -95 -18 -16 -65 -59 -105 -95 -40 -36 -91 -82 -112 -102 -22
-21 -41 -38 -44 -38 -2 0 -27 -22 -54 -50 -27 -27 -52 -50 -54 -50 -4 0 -41
-33 -157 -141 -21 -20 -61 -56 -89 -79 -27 -24 -72 -65 -100 -92 -28 -26 -52
-48 -54 -48 -2 0 -22 -17 -43 -37 -21 -21 -69 -65 -106 -98 -38 -33 -80 -71
-95 -85 -74 -69 -145 -130 -153 -130 -4 0 -8 -7 -8 -15 0 -8 -4 -15 -9 -15 -4
0 -24 -15 -43 -32 -33 -32 -165 -151 -206 -186 -26 -23 -179 -161 -212 -192
-15 -14 -47 -43 -71 -65 -129 -115 -205 -184 -246 -222 -24 -24 -46 -43 -48
-43 -2 0 -22 -18 -45 -41 -22 -22 -40 -38 -40 -36 0 3 -22 -16 -48 -41 -52
-51 -89 -84 -227 -207 -50 -44 -99 -89 -110 -100 -11 -11 -41 -38 -65 -59 -43
-37 -155 -138 -280 -252 l-56 -51 64 -59 c35 -32 99 -93 142 -134 43 -41 105
-99 137 -129 51 -47 228 -212 333 -311 56 -53 266 -249 314 -295 24 -22 101
-94 171 -160 71 -66 143 -133 160 -150 65 -60 279 -261 315 -295 20 -19 92
-87 160 -150 67 -63 139 -131 160 -150 20 -19 97 -91 170 -160 73 -69 150
-141 171 -160 93 -87 276 -259 315 -295 23 -22 90 -85 149 -140 59 -55 135
-127 170 -160 35 -33 99 -93 142 -132 43 -40 111 -103 150 -140 39 -38 121
-115 183 -173 62 -58 134 -125 160 -150 27 -25 101 -94 166 -155 65 -60 137
-128 160 -150 47 -45 260 -245 314 -295 19 -18 88 -83 154 -144 128 -120 128
-120 326 -306 73 -69 150 -141 171 -160 20 -19 91 -85 156 -146 65 -62 134
-126 153 -144 19 -17 67 -62 105 -98 39 -37 130 -123 204 -192 171 -160 354
-332 496 -465 23 -22 96 -89 161 -150 65 -60 154 -144 198 -186 189 -178 253
-238 284 -264 l32 -27 46 46 c25 25 47 46 49 46 2 0 30 26 62 58 61 58 310
294 373 352 19 18 98 92 175 165 77 73 158 149 180 170 39 36 248 233 345 325
26 25 107 101 180 170 73 69 150 141 170 160 20 19 92 87 159 150 67 63 160
151 207 195 97 92 264 249 334 315 26 25 110 104 185 175 154 145 185 174 346
325 61 58 138 130 169 160 32 30 103 98 159 150 56 52 130 122 165 155 99 94
337 318 381 359 37 35 259 245 366 346 26 25 98 92 159 150 62 58 139 131 173
162 33 32 64 58 69 58 4 0 8 7 8 15 0 8 4 15 8 15 5 0 42 32 83 71 41 38 108
102 150 142 42 40 136 128 209 197 145 136 154 145 356 335 76 72 152 144 169
160 18 17 92 86 165 155 73 69 156 148 185 175 29 28 108 102 175 165 68 63
144 134 169 158 25 24 80 75 121 115 42 40 99 93 127 119 28 26 48 49 45 52
-3 3 0 6 6 6 5 0 47 35 91 77 l81 77 -62 55 c-34 31 -79 72 -100 92 -21 20
-38 35 -38 34 0 -2 -15 11 -33 28 -41 39 -183 167 -216 197 -22 18 -132 118
-211 190 -15 14 -60 54 -100 90 -40 36 -101 91 -134 122 -34 31 -73 66 -86 78
-13 11 -58 52 -100 90 -42 38 -87 79 -100 90 -13 11 -58 52 -100 90 -42 38
-87 79 -101 90 -29 26 -157 142 -209 190 -20 19 -66 60 -101 91 -35 31 -83 74
-105 95 -23 22 -72 66 -109 99 -38 33 -80 71 -95 85 -15 14 -57 52 -94 84 -37
33 -84 76 -105 95 -21 20 -75 70 -122 111 -46 41 -96 86 -110 100 -15 14 -60
54 -100 90 -40 36 -84 75 -97 87 -14 13 -63 58 -110 100 -48 43 -98 89 -113
103 -15 14 -53 48 -84 75 -32 28 -72 64 -90 80 -17 17 -69 64 -115 105 -46 41
-93 84 -106 95 -12 11 -59 54 -105 95 -46 41 -99 90 -118 108 -19 17 -40 32
-46 33 -34 1 -3242 1 -3250 -1 -5 -1 -14 -2 -20 0 -14 2 -1248 3 -1260 0 -5
-1 -14 -2 -20 0 -5 1 -384 2 -841 3 -818 2 -831 2 -851 -18z m2675 -1312 c199
-197 362 -357 362 -357 0 1 25 -24 55 -54 30 -31 55 -60 55 -65 0 -6 2 -8 5
-5 3 3 117 -106 254 -241 137 -135 468 -462 736 -726 267 -264 614 -606 770
-760 156 -154 487 -480 735 -725 804 -794 731 -718 717 -740 -6 -11 -15 -20
-18 -20 -4 0 -36 -28 -71 -62 -36 -35 -103 -98 -149 -142 -101 -94 -352 -331
-425 -401 -29 -27 -96 -90 -149 -140 -53 -49 -127 -119 -165 -155 -75 -72
-282 -266 -398 -375 -41 -38 -106 -100 -144 -137 -38 -38 -71 -68 -73 -68 -2
0 -30 -26 -62 -58 -55 -52 -261 -247 -374 -354 -129 -120 -320 -301 -382 -361
-39 -37 -72 -67 -73 -67 -2 0 -37 -33 -78 -72 -77 -75 -265 -253 -340 -321
-22 -21 -101 -96 -174 -165 -74 -70 -140 -130 -146 -134 -8 -4 -34 13 -67 43
-71 67 -276 260 -349 329 -32 30 -109 102 -171 160 -61 58 -133 125 -159 150
-26 25 -103 97 -170 160 -68 63 -140 131 -160 150 -155 145 -270 254 -323 303
-34 31 -66 62 -72 67 -11 11 -50 49 -120 115 -23 22 -95 90 -160 150 -65 61
-137 128 -160 150 -24 22 -100 94 -170 160 -71 66 -142 134 -160 150 -17 17
-94 89 -170 160 -76 72 -154 146 -175 165 -20 19 -92 87 -159 150 -68 63 -147
138 -176 165 -29 28 -106 100 -171 161 -66 62 -141 133 -169 159 -27 26 -99
93 -159 149 -59 55 -132 124 -161 151 -29 28 -113 106 -186 175 -73 69 -151
142 -172 163 -21 20 -39 37 -41 37 -1 0 -41 37 -88 83 -111 105 -312 295 -358
337 -103 95 -299 280 -336 318 -24 23 -45 42 -47 42 -2 0 -44 39 -94 88 -50
48 -132 125 -182 172 l-92 85 55 50 c149 136 229 209 331 300 43 39 93 85 112
102 18 18 33 31 33 29 0 -2 19 15 43 38 23 22 78 73 121 111 90 80 110 99 187
169 30 28 91 83 135 123 43 39 91 82 105 95 14 12 59 54 101 91 119 107 130
118 219 199 46 42 94 86 107 96 13 11 62 56 109 99 47 43 95 87 107 98 13 11
60 54 106 95 100 90 104 94 216 195 100 91 104 95 210 190 42 39 93 85 113
102 l36 33 950 0 951 0 362 -357z"/>
</g>
</svg>
