<svg viewBox="0 0 32 32" fill="none" xmlns="http://www.w3.org/2000/svg">
<circle cx="16" cy="16" r="16" fill="black"/>
<path d="M21.1821 20.3905C18.8062 20.3905 17.3367 18.6985 15.6482 16.1979C13.9597 13.6973 12.7535 12.1324 10.8179 12.1324C9.85369 12.1274 8.92681 12.4997 8.24059 13.1676C7.55436 13.8355 7.16483 14.7446 7.15742 15.6953C7.16483 16.646 7.55436 17.555 8.24059 18.2229C8.92681 18.8908 9.85369 19.2631 10.8179 19.2581C12.4017 19.2581 13.5328 18.129 14.5972 16.694L15.2807 17.6921C14.1182 19.1857 12.7748 20.3905 10.8179 20.3905C9.54796 20.3965 8.32743 19.9055 7.42418 19.0253C6.52093 18.145 6.00874 16.9474 6 15.6953C6.00874 14.4431 6.52093 13.2455 7.42418 12.3652C8.32743 11.485 9.54796 10.994 10.8179 11.0001C13.1938 11.0001 14.7249 12.7677 16.3473 15.1882C17.9697 17.6087 19.2471 19.2581 21.1821 19.2581C21.8381 19.2593 22.4824 19.0869 23.0479 18.759C23.6134 18.4311 24.0794 17.9597 24.3972 17.3938H25.6717C25.3146 18.2782 24.6965 19.0365 23.8975 19.5708C23.0985 20.105 22.1553 20.3906 21.1899 20.3905H21.1821ZM20.279 16.2615V15.1291H24.7955C24.6507 14.2885 24.2081 13.526 23.5463 12.9772C22.8846 12.4284 22.0468 12.129 21.1821 12.1324C19.5978 12.1324 18.4667 13.262 17.4017 14.6982L16.7148 13.7067C17.8767 12.2087 19.2213 11.0001 21.1821 11.0001C22.452 10.994 23.6726 11.485 24.5758 12.3652C25.4791 13.2455 25.9913 14.4431 26 15.6953C25.9996 15.8845 25.9878 16.0736 25.9647 16.2615H20.279Z" fill="#F72A6E"/>
</svg>
