<svg viewBox="0 0 100 100" fill="none" xmlns="http://www.w3.org/2000/svg">
<path d="M50 76.251C53.4629 76.251 56.7148 75.5918 59.7559 74.2734C62.7969 72.9551 65.4775 71.1357 67.7979 68.8154C70.1357 66.4951 71.9639 63.8145 73.2822 60.7734C74.6006 57.7148 75.2598 54.4541 75.2598 50.9912C75.2598 47.5459 74.5918 44.3027 73.2559 41.2617C71.9375 38.2031 70.1094 35.5137 67.7715 33.1934C65.4512 30.8555 62.7705 29.0273 59.7295 27.709C56.6885 26.3906 53.4365 25.7314 49.9736 25.7314C46.5283 25.7314 43.2852 26.3906 40.2441 27.709C37.2031 29.0273 34.5137 30.8555 32.1758 33.1934C29.8555 35.5137 28.0361 38.2031 26.7178 41.2617C25.3994 44.3027 24.7402 47.5459 24.7402 50.9912C24.7402 54.4541 25.3994 57.7148 26.7178 60.7734C28.0537 63.8145 29.8818 66.4951 32.2021 68.8154C34.5225 71.1357 37.2031 72.9551 40.2441 74.2734C43.2852 75.5918 46.5371 76.251 50 76.251ZM50 72.4277C47.0293 72.4277 44.2432 71.874 41.6416 70.7666C39.0576 69.6592 36.79 68.1299 34.8389 66.1787C32.8877 64.21 31.3584 61.9336 30.251 59.3496C29.1436 56.748 28.5898 53.9619 28.5898 50.9912C28.5898 48.0381 29.1436 45.2695 30.251 42.6855C31.3584 40.084 32.8877 37.8076 34.8389 35.8564C36.79 33.8877 39.0576 32.3496 41.6416 31.2422C44.2256 30.1348 47.0029 29.5811 49.9736 29.5811C52.9619 29.5811 55.748 30.1348 58.332 31.2422C60.916 32.3496 63.1836 33.8877 65.1348 35.8564C67.1035 37.8076 68.6416 40.084 69.749 42.6855C70.8564 45.2695 71.4102 48.0381 71.4102 50.9912C71.4277 53.9619 70.8828 56.748 69.7754 59.3496C68.668 61.9336 67.1299 64.21 65.1611 66.1787C63.21 68.1299 60.9336 69.6592 58.332 70.7666C55.748 71.874 52.9707 72.4277 50 72.4277ZM47.2578 62.8301C48.0137 62.8301 48.6201 62.4697 49.0771 61.749L60.7578 43.4502C60.8984 43.2217 61.0215 42.9844 61.127 42.7383C61.25 42.4922 61.3115 42.2461 61.3115 42C61.3115 41.5078 61.1182 41.1123 60.7314 40.8135C60.3447 40.4971 59.9229 40.3389 59.4658 40.3389C58.8506 40.3389 58.3232 40.6816 57.8838 41.3672L47.1787 58.4268L41.9316 51.7822C41.668 51.4307 41.4043 51.1934 41.1406 51.0703C40.877 50.9473 40.5781 50.8857 40.2441 50.8857C39.752 50.8857 39.3389 51.0615 39.0049 51.4131C38.6709 51.7471 38.5039 52.1689 38.5039 52.6787C38.5039 53.1533 38.6797 53.6279 39.0312 54.1025L45.333 61.749C45.6318 62.1357 45.9307 62.417 46.2295 62.5928C46.5283 62.751 46.8711 62.8301 47.2578 62.8301Z" fill="#00FF9D"/>
</svg>
