<svg viewBox="0 0 21 21" fill="none" xmlns="http://www.w3.org/2000/svg">
<path opacity="0.8" d="M9.65039 20.0371H11.3496C11.8574 20.0371 12.2285 19.7344 12.3359 19.2461L12.8145 17.2344C13.1562 17.1172 13.4883 16.9805 13.7812 16.8438L15.5391 17.918C15.959 18.1816 16.4375 18.1426 16.7891 17.8008L17.9707 16.6094C18.3223 16.2676 18.3711 15.7598 18.0879 15.3398L17.0234 13.6016C17.1602 13.2891 17.2969 12.9668 17.3945 12.6445L19.4258 12.1758C19.9141 12.0684 20.207 11.6973 20.207 11.1895V9.51953C20.207 9.02148 19.9141 8.65039 19.4258 8.54297L17.4141 8.06445C17.2969 7.70312 17.1602 7.37109 17.043 7.09766L18.1074 5.33008C18.3809 4.91016 18.3516 4.43164 17.9902 4.08008L16.7891 2.88867C16.4277 2.56641 15.998 2.50781 15.5684 2.75195L13.7812 3.8457C13.498 3.70898 13.166 3.57227 12.8145 3.45508L12.3359 1.41406C12.2285 0.925781 11.8574 0.623047 11.3496 0.623047H9.65039C9.15234 0.623047 8.78125 0.925781 8.67383 1.42383L8.19531 3.43555C7.85352 3.55273 7.50195 3.68945 7.20898 3.83594L5.43164 2.75195C5.00195 2.50781 4.57227 2.55664 4.21094 2.88867L3.00977 4.08008C2.64844 4.43164 2.61914 4.91016 2.89258 5.33008L3.95703 7.09766C3.83984 7.37109 3.70312 7.70312 3.58594 8.06445L1.58398 8.54297C1.08594 8.65039 0.792969 9.02148 0.792969 9.51953V11.1895C0.792969 11.6973 1.08594 12.0684 1.58398 12.1758L3.60547 12.6445C3.70312 12.9668 3.83984 13.2891 3.97656 13.6016L2.91211 15.3398C2.62891 15.7598 2.67773 16.2676 3.0293 16.6094L4.21094 17.8008C4.5625 18.1426 5.04102 18.1816 5.46094 17.918L7.21875 16.8438C7.51172 16.9805 7.85352 17.1172 8.19531 17.2344L8.67383 19.2461C8.78125 19.7344 9.15234 20.0371 9.65039 20.0371ZM10.5 13.582C8.71289 13.582 7.24805 12.1074 7.24805 10.3203C7.24805 8.54297 8.71289 7.07812 10.5 7.07812C12.2969 7.07812 13.752 8.54297 13.752 10.3203C13.752 12.1074 12.2969 13.582 10.5 13.582Z" fill="white"/>
</svg>
