<svg viewBox="0 0 100 100" fill="none" xmlns="http://www.w3.org/2000/svg">
<path d="M42.708 74.9897H57.2653C58.3764 74.9897 59.3052 74.8769 60.0518 74.6512C60.7983 74.4255 61.4493 74.0956 62.0049 73.6616C62.5604 73.2276 63.116 72.7068 63.6715 72.0991L72.6299 62.2554C73.4285 61.3873 73.958 60.5887 74.2184 59.8595C74.4962 59.113 74.6351 58.1408 74.6351 56.9429V45.5366C74.6351 44.304 74.4962 43.3318 74.2184 42.62C73.958 41.8908 73.4285 41.0922 72.6299 40.2241L63.6715 30.3543C63.116 29.7641 62.5604 29.2519 62.0049 28.8179C61.4493 28.3838 60.7983 28.054 60.0518 27.8283C59.3052 27.6026 58.3764 27.4897 57.2653 27.4897H42.708C41.6143 27.4897 40.6941 27.6026 39.9476 27.8283C39.2011 28.054 38.55 28.3838 37.9945 28.8179C37.4389 29.2519 36.8834 29.7641 36.3278 30.3543L27.3695 40.2241C26.5709 41.0922 26.0327 41.8908 25.7549 42.62C25.4945 43.3318 25.3643 44.304 25.3643 45.5366V56.9429C25.3643 58.1408 25.4945 59.113 25.7549 59.8595C26.0327 60.5887 26.5709 61.3873 27.3695 62.2554L36.3278 72.0991C36.8834 72.7068 37.4389 73.2276 37.9945 73.6616C38.55 74.0956 39.2011 74.4255 39.9476 74.6512C40.6941 74.8769 41.6143 74.9897 42.708 74.9897ZM43.8538 71.396C42.9858 71.396 42.2913 71.3265 41.7705 71.1877C41.2497 71.0488 40.7896 70.8144 40.3903 70.4845C39.991 70.172 39.5483 69.7467 39.0622 69.2085L30.6768 60.0679C30.1906 59.5297 29.8695 59.0349 29.7132 58.5835C29.557 58.1147 29.4788 57.429 29.4788 56.5262V45.9272C29.4788 45.0245 29.557 44.3474 29.7132 43.896C29.8695 43.4446 30.1906 42.9498 30.6768 42.4116L39.0622 33.2189C39.5483 32.6981 39.991 32.2814 40.3903 31.9689C40.7896 31.6564 41.2497 31.4307 41.7705 31.2918C42.2913 31.1356 42.9858 31.0575 43.8538 31.0575H56.1195C57.0049 31.0575 57.708 31.1356 58.2288 31.2918C58.767 31.4307 59.2271 31.6564 59.609 31.9689C60.0084 32.2814 60.4511 32.6981 60.9372 33.2189L69.3226 42.4116C69.8087 42.9498 70.1299 43.4446 70.2861 43.896C70.4424 44.3474 70.5205 45.0245 70.5205 45.9272V56.5262C70.5205 57.429 70.4424 58.1147 70.2861 58.5835C70.1299 59.0349 69.8087 59.5297 69.3226 60.0679L60.9372 69.2085C60.4511 69.7467 60.0084 70.172 59.609 70.4845C59.2271 70.8144 58.767 71.0488 58.2288 71.1877C57.708 71.3265 57.0049 71.396 56.1195 71.396H43.8538ZM41.5361 61.5262C42.0743 61.5262 42.5084 61.3439 42.8382 60.9793L49.9997 53.7918L57.2132 60.9793C57.5778 61.3439 58.0118 61.5262 58.5153 61.5262C59.0014 61.5262 59.4181 61.3526 59.7653 61.0054C60.1299 60.6408 60.3122 60.2154 60.3122 59.7293C60.3122 59.2432 60.1299 58.8179 59.7653 58.4533L52.5778 51.2397L59.7913 44.0262C60.1559 43.6616 60.3382 43.245 60.3382 42.7762C60.3382 42.2554 60.1559 41.83 59.7913 41.5002C59.4441 41.1529 59.0275 40.9793 58.5413 40.9793C58.0726 40.9793 57.6472 41.1616 57.2653 41.5262L49.9997 48.7397L42.7861 41.5522C42.4563 41.1877 42.0396 41.0054 41.5361 41.0054C41.0327 41.0054 40.6073 41.179 40.2601 41.5262C39.9129 41.8561 39.7393 42.2727 39.7393 42.7762C39.7393 43.2797 39.9215 43.6963 40.2861 44.0262L47.4736 51.2397L40.2861 58.4793C39.9215 58.8092 39.7393 59.2259 39.7393 59.7293C39.7393 60.2154 39.9129 60.6408 40.2601 61.0054C40.6073 61.3526 41.0327 61.5262 41.5361 61.5262Z" fill="#FF2B5E"/>
</svg>
