<svg viewBox="0 0 30 30" fill="none" xmlns="http://www.w3.org/2000/svg">
<g opacity="0.8" clip-path="url(#clip0_210_391)">
<path d="M28.9145 10.0645C28.3046 8.57835 27.257 7.29851 25.9021 6.38403C26.6421 7.77014 27.1558 9.25889 27.425 10.7973V10.8221C25.727 6.72305 22.8478 5.0707 20.4969 1.47198C20.3755 1.28847 20.2575 1.10296 20.1429 0.91545C20.084 0.815444 20.0288 0.715438 19.9771 0.615432C19.8807 0.432372 19.8066 0.239058 19.7564 0.0393971C19.7564 0.0301836 19.753 0.0212681 19.7467 0.0143512C19.7404 0.00743433 19.7317 0.00300026 19.7223 0.00189486C19.7129 -0.000631619 19.703 -0.000631619 19.6936 0.00189486C19.692 0.00194537 19.6905 0.00238514 19.6891 0.00317259C19.6878 0.00396005 19.6867 0.00506917 19.6859 0.00639513L19.6727 0.0116454L19.6789 0.00189486C18.2282 0.866584 17.0056 2.04682 16.1082 3.44892C15.2108 4.85102 14.6633 6.43638 14.5092 8.07914C13.0029 8.17947 11.5629 8.71685 10.3766 9.62123C10.2529 9.51978 10.1236 9.42488 9.98934 9.33696C9.64712 8.1774 9.63241 6.95019 9.94673 5.78325C8.56168 6.43295 7.33095 7.35392 6.33242 8.48791H6.32544C5.73055 7.75737 5.77237 5.34897 5.80646 4.84569C5.63045 4.9143 5.46246 5.00079 5.30529 5.10371C4.77851 5.46656 4.28599 5.87393 3.83353 6.32103C3.31949 6.82568 2.84998 7.37111 2.42994 7.95163C1.46476 9.27704 0.780263 10.7744 0.415964 12.3574L0.395824 12.4534C0.340569 12.7534 0.291252 13.0559 0.247874 13.361C0.248458 13.3717 0.248458 13.3825 0.247874 13.3932C0.115048 14.0545 0.0322037 14.7243 0 15.3973V15.4723C0.00322194 19.1131 1.41684 22.6203 3.96147 25.3007C6.50609 27.9811 9.99657 29.6396 13.743 29.9486C17.4895 30.2575 21.2194 29.1943 24.1954 26.9692C27.1715 24.744 29.1772 21.5188 29.8162 17.931C29.8418 17.7435 29.8619 17.556 29.8844 17.3685C30.195 14.8936 29.8616 12.3828 28.9145 10.0645ZM11.6067 21.448C11.6772 21.481 11.743 21.5162 11.8151 21.547L11.8259 21.5537L11.6067 21.448Z" fill="url(#paint0_linear_210_391)"/>
<path d="M28.9143 10.0645C28.3044 8.57835 27.2568 7.29851 25.9019 6.38403C26.6419 7.77014 27.1556 9.25889 27.4248 10.7973V10.8273C28.583 14.0341 28.4164 17.5502 26.96 20.6409C25.8492 22.8775 24.0762 24.7435 21.8666 26.0012C19.657 27.2589 17.1109 27.8514 14.5523 27.7033C11.1116 27.6069 7.80785 26.3766 5.18715 24.2156C2.56644 22.0547 0.785687 19.0926 0.139218 15.8189C0.011054 15.0113 0.0471034 14.1873 0.24534 13.3932C0.100568 14.0525 0.0196584 14.7235 0.00366211 15.3973V15.4723C0.00688405 19.1131 1.4205 22.6203 3.96513 25.3007C6.50976 27.9811 10.0002 29.6396 13.7467 29.9486C17.4932 30.2575 21.223 29.1943 24.1991 26.9692C27.1752 24.744 29.1809 21.5188 29.8199 17.931C29.8454 17.7435 29.8656 17.556 29.888 17.3685C30.1974 14.8933 29.8627 12.3825 28.9143 10.0645Z" fill="url(#paint1_radial_210_391)"/>
<path d="M28.9143 10.0645C28.3044 8.57835 27.2568 7.29851 25.9019 6.38403C26.6419 7.77014 27.1556 9.25889 27.4248 10.7973V10.8273C28.583 14.0341 28.4164 17.5502 26.96 20.6409C25.8492 22.8775 24.0762 24.7435 21.8666 26.0012C19.657 27.2589 17.1109 27.8514 14.5523 27.7033C11.1116 27.6069 7.80785 26.3766 5.18715 24.2156C2.56644 22.0547 0.785687 19.0926 0.139218 15.8189C0.011054 15.0113 0.0471034 14.1873 0.24534 13.3932C0.100568 14.0525 0.0196584 14.7235 0.00366211 15.3973V15.4723C0.00688405 19.1131 1.4205 22.6203 3.96513 25.3007C6.50976 27.9811 10.0002 29.6396 13.7467 29.9486C17.4932 30.2575 21.223 29.1943 24.1991 26.9692C27.1752 24.744 29.1809 21.5188 29.8199 17.931C29.8454 17.7435 29.8656 17.556 29.888 17.3685C30.1974 14.8933 29.8627 12.3825 28.9143 10.0645Z" fill="url(#paint2_radial_210_391)"/>
<path d="M21.617 11.7701L21.7107 11.8369C21.3337 11.1894 20.8643 10.5965 20.3164 10.0758C15.6479 5.55825 19.0918 0.277927 19.6696 0.00941017L19.6758 0.00115967C18.2251 0.865849 17.0025 2.04609 16.1051 3.44819C15.2077 4.85029 14.6602 6.43564 14.5061 8.0784C14.6812 8.0664 14.8547 8.05215 15.0336 8.05215C16.3719 8.05455 17.6856 8.40003 18.8413 9.05347C19.9969 9.70691 20.9533 10.645 21.6131 11.7724L21.617 11.7701Z" fill="url(#paint3_radial_210_391)"/>
<path d="M15.0466 12.6762C14.6563 13.3994 14.0178 13.9683 13.241 14.285C8.97062 14.285 8.27734 16.7864 8.27734 16.7864C8.41064 17.8021 8.80402 18.7695 9.42172 19.6005C10.0394 20.4315 10.8618 21.0998 11.8142 21.5447C11.8973 21.5857 11.9818 21.6247 12.0675 21.6617C12.2147 21.7247 12.3616 21.783 12.5083 21.8365C13.1369 22.052 13.7954 22.1751 14.4618 22.2018C21.9461 22.5423 23.3969 13.5357 17.9956 10.9256C19.2697 10.7651 20.5599 11.0685 21.6161 11.7769C20.9563 10.6495 19.9999 9.7114 18.8442 9.05796C17.6886 8.40452 16.3748 8.05904 15.0366 8.05664C14.8584 8.05664 14.6841 8.07089 14.5091 8.08289C13.0028 8.18322 11.5627 8.7206 10.3765 9.62499C10.6089 9.8125 10.8638 10.063 11.4083 10.5828C12.4277 11.5511 15.0404 12.5577 15.0466 12.6762Z" fill="url(#paint4_radial_210_391)"/>
<path d="M15.0466 12.6762C14.6563 13.3994 14.0178 13.9683 13.241 14.285C8.97062 14.285 8.27734 16.7864 8.27734 16.7864C8.41064 17.8021 8.80402 18.7695 9.42172 19.6005C10.0394 20.4315 10.8618 21.0998 11.8142 21.5447C11.8973 21.5857 11.9818 21.6247 12.0675 21.6617C12.2147 21.7247 12.3616 21.783 12.5083 21.8365C13.1369 22.052 13.7954 22.1751 14.4618 22.2018C21.9461 22.5423 23.3969 13.5357 17.9956 10.9256C19.2697 10.7651 20.5599 11.0685 21.6161 11.7769C20.9563 10.6495 19.9999 9.7114 18.8442 9.05796C17.6886 8.40452 16.3748 8.05904 15.0366 8.05664C14.8584 8.05664 14.6841 8.07089 14.5091 8.08289C13.0028 8.18322 11.5627 8.7206 10.3765 9.62499C10.6089 9.8125 10.8638 10.063 11.4083 10.5828C12.4277 11.5511 15.0404 12.5577 15.0466 12.6762Z" fill="url(#paint5_radial_210_391)"/>
<path d="M9.67716 9.13741C9.78044 9.20192 9.88372 9.26842 9.987 9.33692C9.64478 8.17736 9.63007 6.95014 9.94439 5.7832C8.55934 6.4329 7.32861 7.35388 6.33008 8.48787C6.40367 8.48562 8.58186 8.44737 9.67716 9.13741Z" fill="url(#paint6_radial_210_391)"/>
<path d="M0.140924 15.8166C0.786859 19.0903 2.5671 22.0525 5.18739 24.2138C7.80768 26.375 11.1111 27.6057 14.5517 27.7026C17.1102 27.8507 19.6564 27.2581 21.866 26.0004C24.0756 24.7427 25.8486 22.8768 26.9594 20.6401C28.4158 17.5495 28.5823 14.0333 27.4242 10.8265C27.9571 14.1943 26.1848 17.4569 23.4218 19.6636L23.4101 19.6771C18.0305 23.9283 12.8755 22.243 11.8298 21.5522C11.7569 21.5182 11.6841 21.4829 11.6113 21.4464C8.46951 19.9921 7.17126 17.2207 7.44935 14.846C6.70257 14.8579 5.96831 14.6595 5.33577 14.275C4.70322 13.8905 4.19963 13.3363 3.88615 12.6799C4.71088 12.1907 5.65124 11.9142 6.61762 11.8766C7.58401 11.8391 8.54422 12.0418 9.40678 12.4654C11.1852 13.2471 13.2089 13.3241 15.0451 12.6799C15.039 12.5614 12.4262 11.5548 11.4045 10.5798C10.8623 10.06 10.602 9.81024 10.3727 9.62197C10.249 9.52052 10.1197 9.42563 9.98541 9.33771C9.88213 9.2702 9.77885 9.2037 9.67557 9.1382C8.58027 8.4489 6.40208 8.48641 6.33004 8.48866C5.73514 7.75811 5.77697 5.34972 5.81105 4.84644C5.63505 4.91505 5.46705 5.00154 5.30988 5.10445C4.78291 5.46873 4.29039 5.87762 3.83813 6.32627C3.32211 6.82949 2.85053 7.37367 2.42834 7.95312C1.46316 9.27854 0.77866 10.7759 0.414361 12.3589C0.13123 13.4901 0.0373421 14.658 0.136277 15.8181L0.140924 15.8166Z" fill="url(#paint7_radial_210_391)"/>
<path d="M20.3164 10.0788C20.8644 10.6002 21.3338 11.1938 21.7107 11.8421C21.7887 11.8981 21.8638 11.9576 21.9361 12.0206C25.3444 15.0598 23.5566 19.3553 23.4241 19.6606C26.1895 17.454 27.9571 14.1913 27.4265 10.8236C25.727 6.72305 22.8486 5.0707 20.4969 1.47198C20.3755 1.28847 20.2575 1.10296 20.1429 0.91545C20.084 0.815444 20.0287 0.715438 19.9771 0.615432C19.8796 0.432506 19.8045 0.239187 19.7532 0.0393971C19.7533 0.0301836 19.7499 0.0212681 19.7436 0.0143512C19.7373 0.00743433 19.7286 0.00300026 19.7192 0.00189486C19.7098 -0.000631619 19.6999 -0.000631619 19.6905 0.00189486C19.6889 0.00194537 19.6874 0.00238514 19.686 0.00317259C19.6847 0.00396005 19.6835 0.00506917 19.6828 0.00639513L19.6727 0.0116454C19.0925 0.277912 15.6478 5.55823 20.3164 10.0788Z" fill="url(#paint8_radial_210_391)"/>
<path d="M21.9337 12.0191C21.8614 11.9561 21.7863 11.8966 21.7083 11.8406L21.6146 11.7738C20.5584 11.0655 19.2682 10.7621 17.9941 10.9225C23.3954 13.5372 21.9446 22.5423 14.4611 22.2025C13.7947 22.1759 13.1362 22.0527 12.5075 21.8372C12.3603 21.7837 12.2134 21.7255 12.0668 21.6624C11.9816 21.6254 11.8971 21.5864 11.8135 21.5454L11.8243 21.5522C12.8685 22.2422 18.0212 23.9276 23.414 19.6771L23.4225 19.6583C23.5557 19.3516 25.3397 15.0568 21.9337 12.0191Z" fill="url(#paint9_radial_210_391)"/>
<path d="M8.27752 16.7887C8.27752 16.7887 8.97466 14.2873 13.2412 14.2873C14.0182 13.9709 14.6567 13.4019 15.0468 12.6784C13.2105 13.3226 11.1869 13.2456 9.40844 12.4639C8.54589 12.0403 7.58567 11.8376 6.61928 11.8751C5.6529 11.9127 4.71254 12.1892 3.88782 12.6784C4.20075 13.334 4.70333 13.8877 5.33467 14.2723C5.96601 14.6569 6.699 14.8559 7.44481 14.8453C7.33416 16.2294 7.67672 17.6121 8.42385 18.797C9.17098 19.9818 10.2847 20.9086 11.6068 21.4457C11.6773 21.4787 11.7431 21.514 11.8151 21.5447C10.8627 21.1005 10.0401 20.4326 9.42222 19.6019C8.80436 18.7713 8.41085 17.8042 8.27752 16.7887Z" fill="url(#paint10_radial_210_391)"/>
<path d="M28.9145 10.0645C28.3045 8.57835 27.257 7.29851 25.9021 6.38403C26.642 7.77014 27.1557 9.25889 27.4249 10.7973V10.8221C25.727 6.72305 22.8478 5.0707 20.4968 1.47198C20.3755 1.28847 20.2575 1.10296 20.1429 0.91545C20.084 0.815444 20.0287 0.715438 19.9771 0.615432C19.8806 0.432372 19.8066 0.239058 19.7563 0.0393971C19.7564 0.0301836 19.753 0.0212681 19.7467 0.0143512C19.7404 0.00743433 19.7317 0.00300026 19.7222 0.00189486C19.7129 -0.000631619 19.703 -0.000631619 19.6936 0.00189486C19.692 0.00194537 19.6905 0.00238514 19.6891 0.00317259C19.6877 0.00396005 19.6866 0.00506917 19.6858 0.00639513L19.6727 0.0116454L19.6789 0.00189486C18.2281 0.866584 17.0056 2.04682 16.1082 3.44892C15.2108 4.85102 14.6633 6.43638 14.5091 8.07914C14.6842 8.06714 14.8577 8.05289 15.0366 8.05289C16.3747 8.05534 17.6882 8.40077 18.8437 9.05407C19.9992 9.70736 20.9555 10.6452 21.6154 11.7724C20.5592 11.064 19.269 10.7606 17.9949 10.9211C23.3962 13.5357 21.9454 22.5408 14.4619 22.201C13.7955 22.1744 13.137 22.0513 12.5083 21.8357C12.3611 21.7822 12.2142 21.724 12.0676 21.661C11.9824 21.624 11.8979 21.585 11.8143 21.544L11.8251 21.55C11.7523 21.516 11.6795 21.4807 11.6067 21.4442C11.6772 21.4772 11.743 21.5125 11.815 21.5432C10.8625 21.0986 10.0399 20.4303 9.42213 19.5993C8.80439 18.7682 8.41115 17.8007 8.27819 16.7849C8.27819 16.7849 8.97534 14.2835 13.2419 14.2835C14.0192 13.9666 14.6578 13.3967 15.0475 12.6724C15.0413 12.5539 12.4285 11.5473 11.4068 10.5723C10.8646 10.0525 10.6043 9.80274 10.3751 9.61448C10.2513 9.51303 10.1221 9.41813 9.98775 9.33021C9.64553 8.17065 9.63082 6.94343 9.94514 5.7765C8.56 6.42835 7.32977 7.35165 6.33237 8.48791H6.3254C5.7305 7.75737 5.77233 5.34897 5.80642 4.84569C5.63041 4.9143 5.46241 5.00079 5.30524 5.10371C4.77847 5.46656 4.28595 5.87393 3.83349 6.32103C3.31944 6.82568 2.84994 7.37111 2.4299 7.95163C1.46472 9.27704 0.780221 10.7744 0.415922 12.3574L0.395782 12.4534C0.367122 12.5817 0.240861 13.2312 0.22227 13.3707C0.106495 14.0408 0.0325149 14.7171 0.000732422 15.3958V15.4708C0.00395436 19.1116 1.41757 22.6188 3.9622 25.2992C6.50683 27.9796 9.9973 29.6381 13.7438 29.9471C17.4902 30.256 21.2201 29.1928 24.1962 26.9677C27.1722 24.7425 29.1779 21.5173 29.8169 17.9295C29.8425 17.742 29.8626 17.5545 29.8851 17.367C30.1945 14.8918 29.8598 12.381 28.9114 10.063L28.9145 10.0645ZM27.4249 10.8146V10.8303V10.8146Z" fill="url(#paint11_linear_210_391)"/>
</g>
<defs>
<linearGradient id="paint0_linear_210_391" x1="26.1875" y1="4.65016" x2="2.81671" y2="27.9279" gradientUnits="userSpaceOnUse">
<stop offset="0.05" stop-color="#FFF44F"/>
<stop offset="0.37" stop-color="#FF980E"/>
<stop offset="0.53" stop-color="#FF3647"/>
<stop offset="0.7" stop-color="#E31587"/>
</linearGradient>
<radialGradient id="paint1_radial_210_391" cx="0" cy="0" r="1" gradientUnits="userSpaceOnUse" gradientTransform="translate(20.9135 3.4342) scale(30.7162 30.2298)">
<stop offset="0.13" stop-color="#FFBD4F"/>
<stop offset="0.28" stop-color="#FF980E"/>
<stop offset="0.47" stop-color="#FF3750"/>
<stop offset="0.78" stop-color="#EB0878"/>
<stop offset="0.86" stop-color="#E50080"/>
</radialGradient>
<radialGradient id="paint2_radial_210_391" cx="0" cy="0" r="1" gradientUnits="userSpaceOnUse" gradientTransform="translate(11.9431 15.8308) scale(31.4841 30.2298)">
<stop offset="0.3" stop-color="#960E18"/>
<stop offset="0.35" stop-color="#B11927" stop-opacity="0.741"/>
<stop offset="0.43" stop-color="#DB293D" stop-opacity="0.341"/>
<stop offset="0.5" stop-color="#F5334B" stop-opacity="0.09"/>
<stop offset="0.53" stop-color="#FF3750" stop-opacity="0"/>
</radialGradient>
<radialGradient id="paint3_radial_210_391" cx="0" cy="0" r="1" gradientUnits="userSpaceOnUse" gradientTransform="translate(17.9643 -1.41913) scale(10.0865 16.57)">
<stop offset="0.13" stop-color="#FFF44F"/>
<stop offset="0.53" stop-color="#FF980E"/>
</radialGradient>
<radialGradient id="paint4_radial_210_391" cx="0" cy="0" r="1" gradientUnits="userSpaceOnUse" gradientTransform="translate(11.3186 23.6408) scale(13.3387 14.1545)">
<stop offset="0.35" stop-color="#3A8EE6"/>
<stop offset="0.67" stop-color="#9059FF"/>
<stop offset="1" stop-color="#C139E6"/>
</radialGradient>
<radialGradient id="paint5_radial_210_391" cx="0" cy="0" r="1" gradientUnits="userSpaceOnUse" gradientTransform="translate(12.7651 12.7276) scale(7.08287 8.35116)">
<stop offset="0.21" stop-color="#9059FF" stop-opacity="0"/>
<stop offset="0.97" stop-color="#6E008B" stop-opacity="0.6"/>
</radialGradient>
<radialGradient id="paint6_radial_210_391" cx="0" cy="0" r="1" gradientUnits="userSpaceOnUse" gradientTransform="translate(14.0096 2.22948) scale(10.6051 10.3058)">
<stop offset="0.1" stop-color="#FFE226"/>
<stop offset="0.79" stop-color="#FF7139"/>
</radialGradient>
<radialGradient id="paint7_radial_210_391" cx="0" cy="0" r="1" gradientUnits="userSpaceOnUse" gradientTransform="translate(23.6924 -4.53371) scale(50.5591 41.1812)">
<stop offset="0.11" stop-color="#FFF44F"/>
<stop offset="0.46" stop-color="#FF980E"/>
<stop offset="0.72" stop-color="#FF3647"/>
<stop offset="0.9" stop-color="#E31587"/>
</radialGradient>
<radialGradient id="paint8_radial_210_391" cx="0" cy="0" r="1" gradientUnits="userSpaceOnUse" gradientTransform="translate(-11.1456 16.965) rotate(76.9275) scale(15.5694 69.4015)">
<stop stop-color="#FFF44F"/>
<stop offset="0.3" stop-color="#FF980E"/>
<stop offset="0.57" stop-color="#FF3647"/>
<stop offset="0.74" stop-color="#E31587"/>
</radialGradient>
<radialGradient id="paint9_radial_210_391" cx="0" cy="0" r="1" gradientUnits="userSpaceOnUse" gradientTransform="translate(14.1182 5.95597) scale(29.0707 27.6244)">
<stop offset="0.14" stop-color="#FFF44F"/>
<stop offset="0.48" stop-color="#FF980E"/>
<stop offset="0.66" stop-color="#FF3647"/>
<stop offset="0.9" stop-color="#E31587"/>
</radialGradient>
<radialGradient id="paint10_radial_210_391" cx="0" cy="0" r="1" gradientUnits="userSpaceOnUse" gradientTransform="translate(21.6641 7.54646) scale(34.9388 30.2892)">
<stop offset="0.09" stop-color="#FFF44F"/>
<stop offset="0.63" stop-color="#FF980E"/>
</radialGradient>
<linearGradient id="paint11_linear_210_391" x1="23.9977" y1="4.19994" x2="5.39777" y2="25.1976" gradientUnits="userSpaceOnUse">
<stop offset="0.17" stop-color="#FFF44F" stop-opacity="0.8"/>
<stop offset="0.6" stop-color="#FFF44F" stop-opacity="0"/>
</linearGradient>
<clipPath id="clip0_210_391">
<rect width="30" height="30.001" fill="white"/>
</clipPath>
</defs>
</svg>
