<svg viewBox="0 0 241 30" fill="none" xmlns="http://www.w3.org/2000/svg">
<path d="M193.937 21.525C200.675 21.525 204.415 17.51 204.415 11.7625C204.415 6.015 200.675 2 193.937 2H187.31V21.525H193.937ZM200.895 11.7625C200.895 15.805 198.64 18.445 193.827 18.445H190.637V5.08H193.827C198.64 5.08 200.895 7.72 200.895 11.7625Z" fill="#BCBDBF"/>
<path d="M220.611 18.445H210.216V13.165H220.144V10.085H210.216V5.08H220.611V2H206.889V21.525H220.611V18.445Z" fill="#BCBDBF"/>
<path d="M230.972 8.93L225.829 2H221.649L228.992 11.5975L221.374 21.525H225.582L230.972 14.265L236.334 21.525H240.542L232.924 11.5975L240.184 2H236.087L230.972 8.93Z" fill="#BCBDBF"/>
<path fill-rule="evenodd" clip-rule="evenodd" d="M127.789 0.851807H124.407V21.3238H127.789V13.1125C127.789 10.8629 129.129 9.56928 131.228 9.56928C133.211 9.56928 134.144 10.8629 134.144 12.7751V21.2676H137.525V12.4376C137.525 9.11937 135.659 6.8697 132.045 6.8697C129.888 6.8697 128.43 7.76953 127.789 8.72565V0.851807ZM55.96 18.7367C53.2197 18.7367 51.8205 17.3307 51.6454 15.2497H48.2641C48.3805 18.3993 50.4212 21.7175 55.785 21.7175C60.5656 21.7175 63.7724 19.4116 63.7724 15.9246C63.7724 11.4815 60.041 10.6941 56.8929 9.963C54.5608 9.4568 52.4619 9.00688 52.4619 7.20713C52.4619 5.46362 53.9193 4.50754 56.2514 4.50754C58.8168 4.50754 60.1578 6.02607 60.1578 7.93827H63.5392C63.4228 4.33881 60.9738 1.52671 56.2514 1.52671C51.7622 1.52671 49.0801 4.17008 49.0801 7.26337C49.0801 11.594 52.6365 12.3814 55.7268 13.0001C58.1753 13.5062 60.3324 13.9562 60.3324 16.0371C60.2742 17.7806 58.6999 18.7367 55.96 18.7367ZM75.7243 15.306C75.7243 17.6119 74.4418 18.8492 72.3429 18.8492C70.3022 18.8492 69.4862 17.5556 69.4862 15.6434V7.15088H66.1045V16.0933C66.1045 19.4116 67.9701 21.6613 71.5265 21.6613C73.9172 21.6613 75.3747 20.6489 76.0161 19.5241V21.3801H79.106V7.15088H75.7243V15.306ZM90.2419 21.6613C87.968 21.6613 86.3937 20.7052 85.5777 19.4679V27.0043H82.196V7.15088H85.2859V9.17561C86.2187 7.71333 87.968 6.81346 90.2419 6.81346C94.6143 6.81346 97.0632 10.1879 97.0632 14.2374C97.0632 18.2868 94.6143 21.6613 90.2419 21.6613ZM89.6005 9.62553C87.0352 9.62553 85.4609 11.594 85.4609 14.2374C85.4609 16.7682 87.0352 18.793 89.6005 18.793C92.1658 18.793 93.7401 16.8245 93.7401 14.2374C93.7401 11.6503 92.1076 9.62553 89.6005 9.62553ZM122.425 7.03839C122.541 7.03839 122.891 7.03839 122.891 7.03839V10.0755C122.891 10.0755 122.483 10.0192 122.133 10.0192C119.743 10.0192 118.344 11.2003 118.344 13.9562V21.3238H114.962V7.15088H118.052V9.11937C118.635 8.21949 119.86 7.03839 122.425 7.03839ZM112.746 15.1935C112.746 15.1935 112.746 14.6873 112.746 14.1811C112.746 10.0192 109.89 6.81346 105.517 6.81346C101.144 6.81346 98.2293 10.0755 98.2293 14.1811C98.2293 18.3993 101.086 21.605 105.575 21.605C109.015 21.605 111.58 19.6366 112.455 16.8245H109.073C108.549 18.0618 107.208 18.8492 105.634 18.8492C103.302 18.8492 101.786 17.3869 101.552 15.1372H112.746V15.1935ZM105.575 9.4568C107.733 9.4568 109.19 10.8066 109.423 12.7751H101.669C102.019 10.8629 103.418 9.4568 105.575 9.4568ZM154.083 14.1811C154.083 14.6873 154.083 15.1935 154.083 15.1935H142.889C143.122 17.4431 144.638 18.9054 146.97 18.9054C148.544 18.9054 149.827 18.118 150.41 16.8807H153.791C152.917 19.6928 150.293 21.6613 146.912 21.6613C142.481 21.6613 139.566 18.4555 139.566 14.2374C139.566 10.1317 142.481 6.8697 146.853 6.8697C151.226 6.81346 154.083 10.0192 154.083 14.1811ZM150.702 12.7751C150.41 10.8066 149.011 9.4568 146.853 9.4568C144.696 9.4568 143.239 10.8066 142.947 12.7751H150.702ZM164.111 7.03839C164.111 7.03839 163.761 7.03839 163.644 7.03839C161.079 7.03839 159.855 8.21949 159.33 9.11937V7.15088H156.24V21.3238H159.622V13.9562C159.622 11.2003 161.021 10.0192 163.411 10.0192C163.761 10.0192 164.17 10.0755 164.17 10.0755V7.03839H164.111ZM179.27 14.2374C179.27 18.2305 176.355 21.605 171.632 21.605C166.968 21.605 164.053 18.1743 164.053 14.2374C164.053 10.2442 166.968 6.81346 171.632 6.81346C176.355 6.81346 179.27 10.2442 179.27 14.2374ZM171.632 9.68177C169.183 9.68177 167.376 11.4815 167.376 14.2374C167.376 16.9932 169.183 18.793 171.632 18.793C174.081 18.793 175.888 16.9932 175.888 14.2374C175.946 11.4815 174.139 9.68177 171.632 9.68177Z" fill="white"/>
<path fill-rule="evenodd" clip-rule="evenodd" d="M0.105835 10.02L11.0667 0.121399H30.5398L41.5006 10.02L20.8615 29.4796L0.105835 10.02ZM12.2911 3.15846H18.2379L30.9479 15.7004L20.8033 25.2615L4.65343 10.0762L12.2911 3.15846Z" fill="#00FF9D"/>
</svg>
