<svg viewBox="0 0 96 96" xmlns="http://www.w3.org/2000/svg"><path d="M94.242 37.758a5.998 5.998 0 0 0-8.484 0l-2.61 2.61A36.035 36.035 0 0 0 48 12a35.55 35.55 0 0 0-21.621 7.36 5.998 5.998 0 0 0 7.242 9.562A23.668 23.668 0 0 1 48 24a23.957 23.957 0 0 1 22.673 16.477l-3.97-3.164a5.996 5.996 0 1 0-7.477 9.374l15.035 12a5.99 5.99 0 0 0 7.98-.445l12-12a5.998 5.998 0 0 0 .001-8.484ZM62.379 67.078A23.668 23.668 0 0 1 48 72a23.957 23.957 0 0 1-22.673-16.477l3.97 3.164a5.996 5.996 0 1 0 7.477-9.374l-15.035-12a6.007 6.007 0 0 0-7.98.445l-12 12a6 6 0 0 0 8.484 8.484l2.61-2.61A36.035 36.035 0 0 0 48 84a35.55 35.55 0 0 0 21.621-7.36 5.998 5.998 0 1 0-7.242-9.562Z" fill="#ffffff" class="fill-000000"></path></svg>